<svg xmlns="http://www.w3.org/2000/svg" width="3000" height="3000" viewBox="0 0 3000 3000" fill="none"><metadata><rdf:RDF xmlns:rdf="http://www.w3.org/1999/02/22-rdf-syntax-ns#" xmlns:dc="http://purl.org/dc/elements/1.1/"><rdf:Description><dc:creator>RealFaviconGenerator</dc:creator><dc:source>https://realfavicongenerator.net</dc:source></rdf:Description></rdf:RDF></metadata><path d="M981.361 2679.5C1036.32 2451.36 1143.06 2270.91 1274.51 2147.06C1362.59 2064.07 1461.75 2006.49 1563.86 1977C1818.36 1903.5 1919.36 1799 1957.86 1673.5C1996.19 1548.57 2012.39 1489.98 2034.07 1365.2C2034.2 1364.45 2033.47 1363.81 2032.75 1364.07C1677.98 1489.43 1331.16 1683.28 1195.36 1868C1059.36 2053 1015.42 2268.71 981.361 2679.5Z" fill="url(#paint0_linear_6_5)"></path><path d="M981.361 2679.5C1246.72 2542.09 1429.86 2437 1429.86 2272C1429.86 2107 1458.98 2039.93 1563.86 1977C1451.15 2010.96 1354.59 2069.9 1274.51 2147.06C1143.06 2270.91 1036.32 2451.36 981.361 2679.5Z" fill="url(#paint1_linear_6_5)"></path><path d="M981.361 2679.5C1246.72 2542.09 1429.86 2437 1429.86 2272C1429.86 2107 1458.98 2039.93 1563.86 1977C1451.15 2010.96 1354.59 2069.9 1274.51 2147.06C1143.06 2270.91 1036.32 2451.36 981.361 2679.5Z" fill="url(#paint2_radial_6_5)"></path><path d="M1563.86 1977C1458.98 2039.93 1429.86 2107 1429.86 2272C1429.86 2437 1246.72 2542.09 981.361 2679.5C1015.42 2268.71 1059.36 2053 1195.36 1868C1331.16 1683.28 1677.98 1489.43 2032.75 1364.07C2033.47 1363.81 2034.2 1364.45 2034.07 1365.2C2012.39 1489.98 1996.19 1548.57 1957.86 1673.5C1919.36 1799 1818.36 1903.5 1563.86 1977ZM981.361 2679.5C1036.32 2451.36 1143.06 2270.91 1274.51 2147.06M981.361 2679.5C1029.76 2472.78 1128.48 2282.7 1274.51 2147.06M1563.86 1977C1451.15 2010.96 1354.59 2069.9 1274.51 2147.06M1563.86 1977C1461.75 2006.49 1362.59 2064.07 1274.51 2147.06" stroke="url(#paint3_linear_6_5)" stroke-width="5"></path><path d="M982.706 2678.02C982.724 2679.23 981.02 2679.72 980.758 2678.55C930.133 2451.52 817.702 1973.9 999.361 1587C1163.96 1294.17 1463.36 1106 1623.86 1012.5C1784.36 919 1864.64 894.503 1997.86 733.5C2087.35 595.277 2133.56 514.51 2118.94 319.425C2118.85 318.264 2120.51 317.892 2120.91 318.986C2240.55 647.276 2265.34 855.511 2141.86 1024C2056.55 1137.3 1973.97 1187.03 1790.86 1261.5C1524.55 1361.21 1429.7 1429.84 1319.36 1566C1212.18 1718.74 1175.86 1734.5 1088.86 1960C1007.92 2203.58 978.151 2363.07 982.706 2678.02Z" fill="url(#paint4_linear_6_5)" stroke="url(#paint5_linear_6_5)" stroke-width="5"></path><path d="M980.523 2679.17C980.963 2680.3 982.65 2679.74 982.43 2678.55C864.837 2040.64 851.891 1697.34 1240.36 1297.5C1404.32 1142.63 1616.86 1026 1846.86 883C2072.03 743.003 2143.37 473.137 2123.75 330.97C2123.59 329.785 2121.91 330.013 2121.83 331.206C2107.73 534.545 1948.36 637.25 1540.36 806.5C1142.2 982.635 1101.13 1066.05 954.913 1220.95C954.879 1220.98 954.846 1221.02 954.818 1221.06C779.608 1472.36 756.939 1630.45 787.361 1928.5C797.066 2132.68 860.509 2370.94 980.523 2679.17Z" fill="url(#paint6_linear_6_5)" stroke="url(#paint7_linear_6_5)" stroke-width="5"></path><path d="M981.361 2679.5C1045.71 2003.45 1231.61 1702.78 1863.86 1430C1462.61 1555.67 1326.36 1597.5 1175.36 1779.5C1024.36 1961.5 982.421 2267.35 981.361 2679.5Z" fill="#00FFE5"></path><path d="M981.361 2679.5C1045.71 2003.45 1231.61 1702.78 1863.86 1430C1462.61 1555.67 1326.36 1597.5 1175.36 1779.5C1024.36 1961.5 982.421 2267.35 981.361 2679.5Z" fill="#841999"></path><path d="M981.361 2679.5C1045.71 2003.45 1231.61 1702.78 1863.86 1430C1462.61 1555.67 1326.36 1597.5 1175.36 1779.5C1024.36 1961.5 982.421 2267.35 981.361 2679.5Z" stroke="url(#paint8_linear_6_5)" stroke-width="5"></path><path d="M1503.36 823.5C1789.04 689.781 1933.24 589.04 2119.22 318.389C2119.76 317.609 2120.99 317.909 2121.05 318.853C2127.01 414.383 2084.02 508.946 1949.36 604C1785.86 712 1657.63 760.297 1503.36 823.5Z" fill="#00F2FF" stroke="url(#paint9_linear_6_5)" stroke-width="5"></path><defs>
<linearGradient id="paint0_linear_6_5" x1="2645.36" y1="601" x2="1445.36" y2="2380" gradientUnits="userSpaceOnUse">
<stop stop-color="#2DF9FC"></stop>
<stop offset="0.12" stop-color="#FDB323"></stop>
<stop offset="0.25" stop-color="#FDC723"></stop>
<stop offset="0.493399" stop-color="#FF813D"></stop>
<stop offset="0.572291" stop-color="#F85A5D"></stop>
<stop offset="0.683634" stop-color="#A94695"></stop>
<stop offset="0.813805" stop-color="#8036AB"></stop>
<stop offset="0.900482" stop-color="#5C0DBE"></stop>
<stop offset="1" stop-color="#5C0DBE"></stop>
</linearGradient>
<linearGradient id="paint1_linear_6_5" x1="2645.36" y1="601" x2="1445.36" y2="2380" gradientUnits="userSpaceOnUse">
<stop stop-color="#2DF9FC"></stop>
<stop offset="0.12" stop-color="#FDB323"></stop>
<stop offset="0.25" stop-color="#FDC723"></stop>
<stop offset="0.493399" stop-color="#FF813D"></stop>
<stop offset="0.572291" stop-color="#F85A5D"></stop>
<stop offset="0.683634" stop-color="#A94695"></stop>
<stop offset="0.813805" stop-color="#8036AB"></stop>
<stop offset="0.900482" stop-color="#5C0DBE"></stop>
<stop offset="1" stop-color="#5C0DBE"></stop>
</linearGradient>
<radialGradient id="paint2_radial_6_5" cx="0" cy="0" r="1" gradientUnits="userSpaceOnUse" gradientTransform="translate(1507.86 2021.5) rotate(90) scale(658 526.5)">
<stop offset="0.557692" stop-color="#3F00BA"></stop>
<stop offset="1" stop-color="#1B0080"></stop>
</radialGradient>
<linearGradient id="paint3_linear_6_5" x1="1507.86" y1="1365.14" x2="1507.86" y2="2677.86" gradientUnits="userSpaceOnUse">
<stop stop-color="#2DF9FC"></stop>
<stop offset="0.12" stop-color="#FDB323"></stop>
<stop offset="0.25" stop-color="#FDC723"></stop>
<stop offset="0.38" stop-color="#FF813D"></stop>
<stop offset="0.5" stop-color="#F85A5D"></stop>
<stop offset="0.625" stop-color="#A94695"></stop>
<stop offset="0.75" stop-color="#8036AB"></stop>
<stop offset="0.875" stop-color="#5C0DBE"></stop>
<stop offset="1" stop-color="#1B0080"></stop>
</linearGradient>
<linearGradient id="paint4_linear_6_5" x1="2089.36" y1="97.4999" x2="1641.36" y2="2301.5" gradientUnits="userSpaceOnUse">
<stop stop-color="#2DF9FC"></stop>
<stop offset="0.12" stop-color="#FDB323"></stop>
<stop offset="0.25" stop-color="#FDC723"></stop>
<stop offset="0.38" stop-color="#FF813D"></stop>
<stop offset="0.5" stop-color="#F85A5D"></stop>
<stop offset="0.625" stop-color="#A94695"></stop>
<stop offset="0.75" stop-color="#8036AB"></stop>
<stop offset="0.875" stop-color="#5E12BD"></stop>
<stop offset="1" stop-color="#5C0DBE"></stop>
</linearGradient>
<linearGradient id="paint5_linear_6_5" x1="1561.53" y1="314.963" x2="1561.53" y2="2685.04" gradientUnits="userSpaceOnUse">
<stop stop-color="#2DF9FC"></stop>
<stop offset="0.12" stop-color="#FDB323"></stop>
<stop offset="0.25" stop-color="#FDC723"></stop>
<stop offset="0.38" stop-color="#FF813D"></stop>
<stop offset="0.5" stop-color="#F85A5D"></stop>
<stop offset="0.625" stop-color="#A94695"></stop>
<stop offset="0.75" stop-color="#8036AB"></stop>
<stop offset="0.875" stop-color="#5C0DBE"></stop>
<stop offset="1" stop-color="#1B0080"></stop>
</linearGradient>
<linearGradient id="paint6_linear_6_5" x1="2165.36" y1="-2.00008" x2="878.86" y2="2812.5" gradientUnits="userSpaceOnUse">
<stop stop-color="#2DF9FC"></stop>
<stop offset="0.12" stop-color="#FDB323"></stop>
<stop offset="0.25" stop-color="#FDC723"></stop>
<stop offset="0.406086" stop-color="#FF813D"></stop>
<stop offset="0.509969" stop-color="#F85A5D"></stop>
<stop offset="0.625" stop-color="#A94695"></stop>
<stop offset="0.75" stop-color="#8036AB"></stop>
<stop offset="0.879593" stop-color="#5C0DBE"></stop>
<stop offset="0.959271" stop-color="#6617C7"></stop>
</linearGradient>
<linearGradient id="paint7_linear_6_5" x1="1451.42" y1="324.951" x2="1451.42" y2="2686.05" gradientUnits="userSpaceOnUse">
<stop stop-color="#2DF9FC"></stop>
<stop offset="0.12" stop-color="#FDB323"></stop>
<stop offset="0.25" stop-color="#FDC723"></stop>
<stop offset="0.38" stop-color="#FF813D"></stop>
<stop offset="0.5" stop-color="#F85A5D"></stop>
<stop offset="0.625" stop-color="#A94695"></stop>
<stop offset="0.75" stop-color="#8036AB"></stop>
<stop offset="0.875" stop-color="#5C0DBE"></stop>
<stop offset="1" stop-color="#1B0080"></stop>
</linearGradient>
<linearGradient id="paint8_linear_6_5" x1="1422.61" y1="1431.56" x2="1422.61" y2="2677.94" gradientUnits="userSpaceOnUse">
<stop stop-color="#2DF9FC"></stop>
<stop offset="0.12" stop-color="#FDB323"></stop>
<stop offset="0.25" stop-color="#FDC723"></stop>
<stop offset="0.38" stop-color="#FF813D"></stop>
<stop offset="0.5" stop-color="#F85A5D"></stop>
<stop offset="0.625" stop-color="#A94695"></stop>
<stop offset="0.75" stop-color="#8036AB"></stop>
<stop offset="0.875" stop-color="#5C0DBE"></stop>
<stop offset="1" stop-color="#1B0080"></stop>
</linearGradient>
<linearGradient id="paint9_linear_6_5" x1="1812.48" y1="316.633" x2="427.861" y2="1746" gradientUnits="userSpaceOnUse">
<stop stop-color="#2DF9FC"></stop>
<stop offset="0.12" stop-color="#FDB323"></stop>
<stop offset="0.25" stop-color="#FDC723"></stop>
<stop offset="0.38" stop-color="#FF813D"></stop>
<stop offset="0.5" stop-color="#F85A5D"></stop>
<stop offset="0.625" stop-color="#A94695"></stop>
<stop offset="0.75" stop-color="#8036AB"></stop>
<stop offset="0.875" stop-color="#5C0DBE"></stop>
<stop offset="1" stop-color="#1B0080"></stop>
</linearGradient>
</defs></svg>