<svg xmlns="http://www.w3.org/2000/svg" viewBox="0 0 64 64" fill="none" role="img" aria-label="Lanmè Swim">
  <rect width="64" height="64" rx="14" fill="#14212B"/>
  <circle cx="32" cy="28" r="16" fill="#F4B45C"/>
  <path d="M16 36c9 1.2 18.5.6 28.5-1.8 4.5-.9 8.5-.8 12.5.4-7.2 2.6-15 4.4-23.5 4.4-7.5 0-13.5-1.2-17.5-3Z" fill="#14212B"/>
  <path d="M20 28c6 .6 12.5.5 19.5-.8 4.5-.8 9-.7 13.5.5-8 1.8-15.5 3-22.5 3-4.2 0-7.8-1-10.5-2.7Z" fill="#14212B"/>
  <path d="M21 46c10 2.2 22 2.2 33-.6-10.5 5.2-24 6.4-37.5 2.2 1.2-.5 2.7-1.1 4.5-1.6Z" fill="#1B5F6E"/>
  <path d="M14 51c13.5 3.8 29 3.8 42.5-.6-10 6.2-28.5 7.4-45 2.2.8-.5 1.6-1.1 2.5-1.6Z" fill="#2A8BA8"/>
</svg>
